<svg xmlns="http://www.w3.org/2000/svg" viewBox="0 0 100 100" preserveAspectRatio="xMidYMid" width="200" height="200" xmlns:xlink="http://www.w3.org/1999/xlink" style="shape-rendering:auto;display:block;background-position-x:0%;background-position-y:0%;background-size:auto;background-origin:padding-box;background-clip:border-box;background:scroll rgb(255, 255, 255) none  repeat;width:200px;height:200px;;animation:none"><g><g transform="matrix(1,0,0,1,80,50)" style="transform:matrix(1, 0, 0, 1, 80, 50);;animation:none"><g transform="matrix(1,0,0,1,0,0)" style="transform:matrix(1, 0, 0, 1, 0, 0);;animation:none"><circle fill-opacity="0.125" fill="#72cfff" r="6" cy="0" cx="0" transform="matrix(1.0625,0,0,1.0625,0,0)" style="fill:rgb(114, 207, 255);transform:matrix(1.0625, 0, 0, 1.0625, 0, 0);;animation:none"></circle></g></g>
<g transform="matrix(1,0,0,1,71.21320343017578,71.21320343017578)" style="transform:matrix(1, 0, 0, 1, 71.2132, 71.2132);;animation:none"><g transform="matrix(0.7071067811865476,0.7071067811865476,-0.7071067811865476,0.7071067811865476,0,0)" style="transform:matrix(0.707107, 0.707107, -0.707107, 0.707107, 0, 0);;animation:none"><circle fill-opacity="0.25" fill="#72cfff" r="6" cy="0" cx="0" transform="matrix(1.125,0,0,1.125,0,0)" style="fill:rgb(114, 207, 255);transform:matrix(1.125, 0, 0, 1.125, 0, 0);;animation:none"></circle></g></g>
<g transform="matrix(1,0,0,1,50,80)" style="transform:matrix(1, 0, 0, 1, 50, 80);;animation:none"><g transform="matrix(6.123233995736766e-17,1,-1,6.123233995736766e-17,0,0)" style="transform:matrix(0, 1, -1, 0, 0, 0);;animation:none"><circle fill-opacity="0.375" fill="#72cfff" r="6" cy="0" cx="0" transform="matrix(1.1875,0,0,1.1875,0,0)" style="fill:rgb(114, 207, 255);transform:matrix(1.1875, 0, 0, 1.1875, 0, 0);;animation:none"></circle></g></g>
<g transform="matrix(1,0,0,1,28.78679656982422,71.21320343017578)" style="transform:matrix(1, 0, 0, 1, 28.7868, 71.2132);;animation:none"><g transform="matrix(-0.7071067811865475,0.7071067811865476,-0.7071067811865476,-0.7071067811865475,0,0)" style="transform:matrix(-0.707107, 0.707107, -0.707107, -0.707107, 0, 0);;animation:none"><circle fill-opacity="0.5" fill="#72cfff" r="6" cy="0" cx="0" transform="matrix(1.25,0,0,1.25,0,0)" style="fill:rgb(114, 207, 255);transform:matrix(1.25, 0, 0, 1.25, 0, 0);;animation:none"></circle></g></g>
<g transform="matrix(1,0,0,1,20,50)" style="transform:matrix(1, 0, 0, 1, 20, 50);;animation:none"><g transform="matrix(-1,1.2246467991473532e-16,-1.2246467991473532e-16,-1,0,0)" style="transform:matrix(-1, 0, 0, -1, 0, 0);;animation:none"><circle fill-opacity="0.625" fill="#72cfff" r="6" cy="0" cx="0" transform="matrix(1.3125,0,0,1.3125,0,0)" style="fill:rgb(114, 207, 255);transform:matrix(1.3125, 0, 0, 1.3125, 0, 0);;animation:none"></circle></g></g>
<g transform="matrix(1,0,0,1,28.78679656982422,28.78679656982422)" style="transform:matrix(1, 0, 0, 1, 28.7868, 28.7868);;animation:none"><g transform="matrix(-0.7071067811865477,-0.7071067811865475,0.7071067811865475,-0.7071067811865477,0,0)" style="transform:matrix(-0.707107, -0.707107, 0.707107, -0.707107, 0, 0);;animation:none"><circle fill-opacity="0.75" fill="#72cfff" r="6" cy="0" cx="0" transform="matrix(1.375,0,0,1.375,0,0)" style="fill:rgb(114, 207, 255);transform:matrix(1.375, 0, 0, 1.375, 0, 0);;animation:none"></circle></g></g>
<g transform="matrix(1,0,0,1,50,20)" style="transform:matrix(1, 0, 0, 1, 50, 20);;animation:none"><g transform="matrix(-1.8369701987210297e-16,-1,1,-1.8369701987210297e-16,0,0)" style="transform:matrix(0, -1, 1, 0, 0, 0);;animation:none"><circle fill-opacity="0.875" fill="#72cfff" r="6" cy="0" cx="0" transform="matrix(1.4375,0,0,1.4375,0,0)" style="fill:rgb(114, 207, 255);transform:matrix(1.4375, 0, 0, 1.4375, 0, 0);;animation:none"></circle></g></g>
<g transform="matrix(1,0,0,1,71.21320343017578,28.78679656982422)" style="transform:matrix(1, 0, 0, 1, 71.2132, 28.7868);;animation:none"><g transform="matrix(0.7071067811865474,-0.7071067811865477,0.7071067811865477,0.7071067811865474,0,0)" style="transform:matrix(0.707107, -0.707107, 0.707107, 0.707107, 0, 0);;animation:none"><circle fill-opacity="1" fill="#72cfff" r="6" cy="0" cx="0" transform="matrix(1.5,0,0,1.5,0,0)" style="fill:rgb(114, 207, 255);transform:matrix(1.5, 0, 0, 1.5, 0, 0);;animation:none"></circle></g></g>
<g></g></g><!-- [ldio] generated by https://loading.io --></svg>